<?xml version="1.0" encoding="utf-8"?><svg width="31" height="18" fill="none" xmlns="http://www.w3.org/2000/svg" viewBox="0 0 31 18"><path fill-rule="evenodd" clip-rule="evenodd" d="M15.214 17.887h1.88s.563-.095.845-.38c.282-.286.282-.857.282-.857s0-2.474 1.128-2.854c1.128-.38 2.631 2.473 4.135 3.52 1.127.856 1.973.666 1.973.666l4.135-.095s2.162-.095 1.128-1.903c-.094-.095-.564-1.237-3.101-3.615-2.632-2.474-2.256-1.998.846-6.28 1.88-2.569 2.63-4.091 2.443-4.852C30.72.57 29.31.76 29.31.76h-4.698s-.376-.095-.564.095c-.282.19-.376.476-.376.476s-.752 1.998-1.692 3.71c-2.067 3.52-2.913 3.711-3.195 3.52-.752-.475-.564-2.092-.564-3.139 0-3.425.564-4.852-1.034-5.233-.47-.095-.846-.19-2.161-.19-1.692 0-3.101 0-3.853.38-.564.286-.94.857-.658.857.282 0 1.034.19 1.41.666.375.856.375 2.283.375 2.283s.282 4.091-.657 4.567c-.658.38-1.504-.38-3.383-3.615-.94-1.618-1.692-3.52-1.692-3.52s-.094-.381-.376-.571C5.91.857 5.44.76 5.44.76H1.023s-.658 0-.94.286c-.187.285 0 .76 0 .76s3.478 8.183 7.425 12.37c3.665 3.995 7.706 3.71 7.706 3.71z" fill="#9C9C9C"/></svg>