<?xml version="1.0" encoding="utf-8"?><svg viewBox="0 0 1920 624" xmlns="http://www.w3.org/2000/svg" xmlns:xlink="http://www.w3.org/1999/xlink"><style>:root>svg{display:none}:root>svg:target{display:block}</style><svg fill="none" viewBox="0 0 21 16" id="arrow" xmlns="http://www.w3.org/2000/svg"><path d="M20.707 8.707a1 1 0 000-1.414L14.343.929a1 1 0 10-1.414 1.414L18.586 8l-5.657 5.657a1 1 0 001.414 1.414l6.364-6.364zM0 9h20V7H0v2z" fill="#fff"/></svg><svg fill="none" viewBox="0 0 20 20" id="instagram" xmlns="http://www.w3.org/2000/svg"><path d="M9.997 6.665A3.342 3.342 0 006.663 10a3.342 3.342 0 003.334 3.335A3.342 3.342 0 0013.332 10a3.342 3.342 0 00-3.335-3.335zM20 10c0-1.38.012-2.75-.065-4.128-.078-1.6-.443-3.022-1.614-4.193C17.147.506 15.73.143 14.127.066 12.747-.012 11.378 0 10 0 8.619 0 7.25-.012 5.872.066 4.271.143 2.85.509 1.68 1.679.506 2.853.143 4.271.066 5.872-.012 7.253 0 8.622 0 10c0 1.378-.013 2.75.065 4.128.077 1.6.443 3.022 1.613 4.193 1.174 1.173 2.592 1.536 4.193 1.613C7.253 20.012 8.622 20 10 20c1.38 0 2.75.013 4.127-.065 1.602-.077 3.022-.443 4.193-1.613 1.174-1.174 1.536-2.592 1.614-4.193.08-1.379.065-2.747.065-4.128zM9.997 15.131A5.124 5.124 0 014.867 10a5.124 5.124 0 015.13-5.131c2.84 0 5.131 2.292 5.131 5.131a5.124 5.124 0 01-5.13 5.131zm5.341-9.274A1.197 1.197 0 0114.14 4.66c0-.663.535-1.198 1.198-1.198a1.197 1.197 0 01.848 2.046 1.196 1.196 0 01-.848.35z" fill="#9C9C9C"/></svg><svg fill="none" viewBox="0 0 1920 624" id="redBKGbottom" xmlns="http://www.w3.org/2000/svg"><path d="M0 624s583.628-69.515 959-69.571c376.15-.057 961 69.571 961 69.571V0H0v624z" fill="#FF4F4F"/></svg><svg fill="none" viewBox="0 0 31 18" id="vk" xmlns="http://www.w3.org/2000/svg"><path fill-rule="evenodd" clip-rule="evenodd" d="M15.214 17.887h1.88s.563-.095.845-.38c.282-.286.282-.857.282-.857s0-2.474 1.128-2.854c1.128-.38 2.631 2.473 4.135 3.52 1.127.856 1.973.666 1.973.666l4.135-.095s2.162-.095 1.128-1.903c-.094-.095-.564-1.237-3.101-3.615-2.632-2.474-2.256-1.998.846-6.28 1.88-2.569 2.63-4.091 2.443-4.852C30.72.57 29.31.76 29.31.76h-4.698s-.376-.095-.564.095c-.282.19-.376.476-.376.476s-.752 1.998-1.692 3.71c-2.067 3.52-2.913 3.711-3.195 3.52-.752-.475-.564-2.092-.564-3.139 0-3.425.564-4.852-1.034-5.233-.47-.095-.846-.19-2.161-.19-1.692 0-3.101 0-3.853.38-.564.286-.94.857-.658.857.282 0 1.034.19 1.41.666.375.856.375 2.283.375 2.283s.282 4.091-.657 4.567c-.658.38-1.504-.38-3.383-3.615-.94-1.618-1.692-3.52-1.692-3.52s-.094-.381-.376-.571C5.91.857 5.44.76 5.44.76H1.023s-.658 0-.94.286c-.187.285 0 .76 0 .76s3.478 8.183 7.425 12.37c3.665 3.995 7.706 3.71 7.706 3.71z" fill="#9C9C9C"/></svg></svg>