<svg width="30" height="26" viewBox="0 0 30 26" fill="none" xmlns="http://www.w3.org/2000/svg">
    <path d="M29.8167 7.01109C29.6302 6.7752 29.3799 6.65726 29.0658 6.65726H9.07017L7.53884 2.01815C7.40141 1.59879 7.21491 1.24059 6.97932 0.943548C6.74373 0.646505 6.49342 0.436828 6.22838 0.314516C5.96334 0.192204 5.73266 0.109207 5.53634 0.0655242C5.34001 0.0218414 5.14369 0 4.94736 0H0.912907C0.657685 0 0.441729 0.078629 0.265037 0.235887C0.0883458 0.393145 0 0.594086 0 0.83871C0 0.978495 0.0392648 1.11391 0.117794 1.24496C0.196324 1.37601 0.30921 1.47648 0.456453 1.54637C0.603696 1.61626 0.755847 1.65121 0.912907 1.65121H4.94736C5.02589 1.65121 5.09952 1.65995 5.16823 1.67742C5.23694 1.69489 5.3302 1.76915 5.44799 1.9002C5.56579 2.03125 5.66395 2.22782 5.74248 2.48992L10.9549 19.5262C10.9941 19.631 11.0579 19.7315 11.1463 19.8276C11.2346 19.9237 11.3377 19.998 11.4555 20.0504C11.5733 20.1028 11.7009 20.129 11.8383 20.129H24.5601C24.7565 20.129 24.9381 20.0766 25.1049 19.9718C25.2718 19.8669 25.3847 19.7359 25.4436 19.5786L29.9492 7.78427C30.0474 7.5047 30.0032 7.24698 29.8167 7.01109ZM23.9123 18.4516H12.5746L9.5708 8.33468H27.7111L23.9123 18.4516ZM22.057 21.8065C21.4091 21.8065 20.8545 22.0118 20.3932 22.4224C19.9318 22.833 19.7011 23.3266 19.7011 23.9032C19.7011 24.4798 19.9318 24.9735 20.3932 25.3841C20.8545 25.7947 21.4091 26 22.057 26C22.7049 26 23.2595 25.7947 23.7208 25.3841C24.1822 24.9735 24.4129 24.4798 24.4129 23.9032C24.4129 23.3266 24.1822 22.833 23.7208 22.4224C23.2595 22.0118 22.7049 21.8065 22.057 21.8065ZM13.5758 21.8065C13.1439 21.8065 12.7463 21.9026 12.3831 22.0948C12.0199 22.287 11.7353 22.5403 11.5291 22.8548C11.323 23.1694 11.2199 23.5188 11.2199 23.9032C11.2199 24.4798 11.4506 24.9735 11.912 25.3841C12.3733 25.7947 12.9279 26 13.5758 26C14.2237 26 14.7783 25.7947 15.2397 25.3841C15.701 24.9735 15.9317 24.4798 15.9317 23.9032C15.9317 23.7634 15.917 23.6237 15.8875 23.4839C15.8581 23.3441 15.8139 23.213 15.755 23.0907C15.6961 22.9684 15.6225 22.8505 15.5341 22.7369C15.4458 22.6233 15.3476 22.5185 15.2397 22.4224C15.1317 22.3263 15.0139 22.2389 14.8863 22.1603C14.7587 22.0817 14.6261 22.0161 14.4887 21.9637C14.3513 21.9113 14.204 21.872 14.047 21.8458C13.8899 21.8196 13.7329 21.8065 13.5758 21.8065Z" fill="red"/>
</svg>

