<svg width="50" height="52" viewBox="0 0 50 52" fill="none" xmlns="http://www.w3.org/2000/svg">
<path fill-rule="evenodd" clip-rule="evenodd" d="M25 51.2878C11.1922 51.2878 0 39.932 0 25.9223C0 11.9126 11.1922 0.556763 25 0.556763C38.8078 0.556763 50 11.9126 50 25.9223C50 39.932 38.8078 51.2878 25 51.2878ZM25.4375 37.5349C27.0438 38.6621 29.0813 39.3327 31.2875 39.3327C31.8359 39.3327 32.3781 39.2915 32.9109 39.2106C33.0938 39.2867 33.2703 39.3803 33.4875 39.5071C33.9562 39.7861 34.5828 40.2141 35.3625 40.7912C36.0016 41.2652 36.9062 40.8071 36.9062 40.0096V37.6935C37.2344 37.4778 37.5438 37.2448 37.8359 36.9927C39.6016 35.474 40.625 33.3972 40.625 31.1698C40.625 29.7033 40.1875 28.332 39.4188 27.1477C39.1764 27.9887 38.848 28.8016 38.4391 29.5733C38.6016 30.0854 38.6875 30.6196 38.6875 31.1698C38.6875 32.809 37.925 34.3563 36.575 35.5168C36.2267 35.8153 35.8516 36.0802 35.4547 36.3079C35.3076 36.3921 35.1852 36.5144 35.0999 36.6623C35.0145 36.8102 34.9693 36.9783 34.9688 37.1497V38.1389C34.0422 37.5365 33.4062 37.2527 32.9219 37.2527C32.8674 37.2529 32.8131 37.2577 32.7594 37.267C31.4019 37.4973 30.0102 37.4051 28.6938 36.9975C27.6275 37.2784 26.538 37.4589 25.4391 37.5365L25.4375 37.5349ZM13.7719 32.9025C14.2871 33.3449 14.8322 33.7501 15.4031 34.1153V38.066C15.4031 39.0648 16.5359 39.6355 17.3344 39.0426C19.5375 37.4097 21.0688 36.487 21.4516 36.3951C22.3359 36.5377 23.2391 36.6091 24.1516 36.6091C32.2766 36.6091 38.9297 30.8907 38.9297 23.7361C38.9297 16.5798 32.275 10.8615 24.1516 10.8615C16.0281 10.8615 9.375 16.5798 9.375 23.7345C9.375 27.2381 10.9844 30.5055 13.7719 32.9025ZM21.5047 33.9584C20.7188 33.9584 19.5703 34.5212 17.8266 35.7086V33.4305C17.8258 33.216 17.769 33.0056 17.6619 32.8207C17.5549 32.6357 17.4014 32.4829 17.2172 32.3778C16.5551 31.9976 15.9294 31.5555 15.3484 31.0572C13.0781 29.1088 11.7969 26.5025 11.7969 23.7345C11.7969 18.0114 17.2906 13.2902 24.1516 13.2902C31.0141 13.2902 36.5063 18.0114 36.5063 23.7345C36.5063 29.4576 31.0141 34.1803 24.1516 34.1803C23.3234 34.1803 22.5062 34.1106 21.7078 33.9742C21.6407 33.9632 21.5727 33.9579 21.5047 33.9584ZM17.8531 26.1648C18.9234 26.1648 19.7906 25.2929 19.7906 24.2212C19.7906 23.1479 18.9234 22.2776 17.8531 22.2776C16.7828 22.2776 15.9156 23.1479 15.9156 24.2212C15.9156 25.2945 16.7828 26.1648 17.8531 26.1648ZM24.1516 26.1648C25.2219 26.1648 26.0891 25.2929 26.0891 24.2212C26.0891 23.1479 25.2219 22.2776 24.1516 22.2776C23.0812 22.2776 22.2141 23.1479 22.2141 24.2212C22.2141 25.2945 23.0812 26.1648 24.1516 26.1648ZM30.45 26.1648C31.5203 26.1648 32.3875 25.2929 32.3875 24.2212C32.3875 23.1479 31.5203 22.2776 30.45 22.2776C29.3797 22.2776 28.5125 23.1479 28.5125 24.2212C28.5125 25.2945 29.3797 26.1648 30.45 26.1648Z" fill="#82FF77"/>
</svg>
